<svg width="32" height="32" viewBox="0 0 32 32" fill="none" xmlns="http://www.w3.org/2000/svg">
<path d="M7.87988 12.3333L10.3332 16L7.87988 19.6666" stroke="#3CAF4E" stroke-linecap="round" stroke-linejoin="round"/>
<path d="M12.7866 12.3333L10.3333 16L12.7866 19.6666" stroke="#3CAF4E" stroke-linecap="round" stroke-linejoin="round"/>
<path d="M3.66675 10.6666V21.3333C3.66675 21.6869 3.80722 22.0261 4.05727 22.2761C4.30732 22.5262 4.64646 22.6666 5.00008 22.6666H15.6667C16.0204 22.6666 16.3595 22.5262 16.6096 22.2761C16.8596 22.0261 17.0001 21.6869 17.0001 21.3333V10.6666C17.0001 10.313 16.8596 9.97389 16.6096 9.72384C16.3595 9.47379 16.0204 9.33331 15.6667 9.33331H5.00008C4.64646 9.33331 4.30732 9.47379 4.05727 9.72384C3.80722 9.97389 3.66675 10.313 3.66675 10.6666Z" stroke="#3CAF4E" stroke-linecap="round" stroke-linejoin="round"/>
<path d="M8.82007 9.33333V4.33333C8.82007 3.97971 8.96054 3.64057 9.21059 3.39052C9.46064 3.14048 9.79978 3 10.1534 3H27.0001C27.3537 3 27.6928 3.14048 27.9429 3.39052C28.1929 3.64057 28.3334 3.97971 28.3334 4.33333V27.6667C28.3334 28.0203 28.1929 28.3594 27.9429 28.6095C27.6928 28.8595 27.3537 29 27.0001 29H10.1534C9.79978 29 9.46064 28.8595 9.21059 28.6095C8.96054 28.3594 8.82007 28.0203 8.82007 27.6667V22.6667" stroke="#3CAF4E" stroke-linecap="round" stroke-linejoin="round"/>
</svg>
