<svg width="16" height="17" viewBox="0 0 16 17" fill="none" xmlns="http://www.w3.org/2000/svg">
<path d="M9.33334 2.5V5.16667C9.33334 5.34348 9.40358 5.51305 9.52861 5.63807C9.65363 5.7631 9.8232 5.83333 10 5.83333H12.6667" stroke="#595959" stroke-linecap="round" stroke-linejoin="round"/>
<path d="M11.3333 14.5H4.66668C4.31305 14.5 3.97392 14.3595 3.72387 14.1095C3.47382 13.8594 3.33334 13.5203 3.33334 13.1667V3.83333C3.33334 3.47971 3.47382 3.14057 3.72387 2.89052C3.97392 2.64048 4.31305 2.5 4.66668 2.5H9.33334L12.6667 5.83333V13.1667C12.6667 13.5203 12.5262 13.8594 12.2762 14.1095C12.0261 14.3595 11.687 14.5 11.3333 14.5Z" stroke="#595959" stroke-linecap="round" stroke-linejoin="round"/>
<path d="M5.33334 7.83334H10.6667V12.5H5.33334V7.83334Z" stroke="#595959" stroke-linecap="round" stroke-linejoin="round"/>
<path d="M5.33334 10.5H10.6667" stroke="#595959" stroke-linecap="round" stroke-linejoin="round"/>
<path d="M7.33334 7.83334V12.5" stroke="#595959" stroke-linecap="round" stroke-linejoin="round"/>
</svg>
